# AST/ASF file generated using VICON BodyLanguage
# -----------------------------------------------
:version 1.10
:name VICON
:units
  mass 1.0
  length 0.45
  angle deg
:documentation
   .ast/.asf automatically generated from VICON data using
   VICON BodyBuilder and BodyLanguage model FoxedUp or BRILLIANT.MOD
:root
   order TX TY TZ RX RY RZ
   axis XYZ
   position 0 0 0  
   orientation 0 0 0 
:bonedata
  begin
     id 1 
     name lhipjoint
     direction 0.570549 -0.739093 0.358072 
     length 2.41801 
     axis 0 0 0  XYZ
  end
  begin
     id 2 
     name lfemur
     direction 0.34202 -0.939693 0  
     length 7.44434  
     axis 0 0 20  XYZ
    dof rx ry rz
    limits (-160.0 20.0)
           (-70.0 70.0)
           (-60.0 70.0)
  end
  begin
     id 3 
     name ltibia
     direction 0.34202 -0.939693 0   
     length 7.60047   
     axis 0 0 20   XYZ
    dof rx
    limits (-10.0 170.0)
  end
  begin
     id 4 
     name lfoot
     direction 0.0909041 -0.249757 0.964032   
     length 2.03437   
     axis -90 7.62852e-016 20   XYZ
    dof rx rz
    limits (-45.0 90.0)
           (-70.0 20.0)
  end
  begin
     id 5 
     name ltoes
     direction 1.53547e-011 -4.2174e-011 1   
     length 1.02054   
     axis -90 7.62852e-016 20   XYZ
    dof rx
    limits (-90.0 20.0)
  end
  begin
     id 6 
     name rhipjoint
     direction -0.558096 -0.746754 0.361784   
     length 2.3932  
     axis 0 0 0  XYZ 
  end
  begin
     id 7 
     name rfemur
     direction -0.34202 -0.939693 0   
     length 7.3886   
     axis 0 0 -20   XYZ
    dof rx ry rz
    limits (-160.0 20.0)
           (-70.0 70.0)
           (-70.0 60.0)
  end
  begin
     id 8 
     name rtibia
     direction -0.34202 -0.939693 0   
     length 7.4839   
     axis 0 0 -20   XYZ
    dof rx
    limits (-10.0 170.0)
 end
 begin
     id 9 
     name rfoot
     direction -0.114619 -0.314914 0.942174   
     length 2.25127  
     axis -90 -7.62852e-016 -20   XYZ
    dof rx rz
    limits (-45.0 90.0)
           (-20.0 70.0)
  end
  begin
     id 10 
     name rtoes
     direction -1.53518e-011 -4.21881e-011 1   
     length 1.11821   
     axis -90 -7.62852e-016 -20   XYZ
    dof rx
    limits (-90.0 20.0)
  end
  begin
     id 11 
     name lowerback
     direction -0.00902269 0.996426 -0.0839821   
     length 2.25052   
     axis 0 0 0   XYZ
    dof rx ry rz
    limits (-20.0 45.0)
           (-30.0 30.0)
           (-30.0 30.0)
  end
  begin
     id 12 
     name upperback
     direction 0.0370973 0.999169 -0.0168941   
     length 2.24876   
     axis 0 0 0   XYZ
    dof rx ry rz
    limits (-20.0 45.0)
           (-30.0 30.0)
           (-30.0 30.0)
  end
  begin
     id 13 
     name thorax
     direction 0.0402726 0.998931 0.0227027   
     length 2.26408   
     axis 0 0 0   XYZ
    dof rx ry rz
    limits (-20.0 45.0)
           (-30.0 30.0)
           (-30.0 30.0)
  end
  begin
     id 14 
     name lowerneck
     direction -0.0733697 0.98508 0.155675   
     length 1.58204   
     axis 0 0 0   XYZ
    dof rx ry rz
    limits (-20.0 45.0)
           (-30.0 30.0)
           (-30.0 30.0)
  end
  begin
     id 15 
     name upperneck
     direction 0.0426554 0.993501 -0.105526   
     length 1.61222   
     axis 0 0 0   XYZ
    dof rx ry rz
    limits (-20.0 45.0)
           (-30.0 30.0)
           (-30.0 30.0)
  end
  begin
     id 16
     name head
     direction 0.020792 0.998384 -0.0528868  
     length 1.61527  
     axis 0 0 0   XYZ
    dof rx ry rz
    limits (-20.0 45.0)
           (-30.0 30.0)
           (-30.0 30.0)
  end
  begin
     id 17 
     name lclavicle
     direction 0.967109 0.155462 -0.201325  
     length 3.59357  
     axis 0 0 0   XYZ
    dof ry rz
    limits (-20.0 10.0)
           (0.0 20.0)
  end
  begin
     id 18 
     name lhumerus
     direction 1 -4.48968e-011 2.38195e-027   
     length 5.38154   
     axis 180 -30 -90   XYZ
    dof rx ry rz
    limits (-60.0 90.0)
           (-90.0 90.0)
           (-90.0 90.0)
  end
  begin
     id 19
     name lradius
     direction 1 -4.48961e-011 4.85371e-027   
     length 3.33312   
     axis 180 -30 -90   XYZ
    dof rx
    limits (-10.0 170.0)
  end
  begin
     id 20
     name lwrist
     direction 1 -4.48961e-011 4.76515e-027   
     length 1.66656   
     axis -3.27502e-015 90 90   XYZ
    dof ry
    limits (-180.0 0.0)
 end
  begin
     id 21 
     name lhand
     direction 1 -4.48951e-011 9.53074e-027   
     length 0.710789   
     axis -6.08098e-015 90 90   XYZ
    dof rx rz
    limits (-90.0 90.0)
           (-45.0 45.0)
  end
  begin
     id 22 
     name lfingers
     direction 1 -4.48953e-011 1.90613e-026   
     length 0.573057   
     axis -1.21619e-014 90 90   XYZ
    dof rx
    limits (0.0 90.0)
  end
  begin
     id 23
     name lthumb
     direction 0.707107 -6.34973e-011 0.707107   
     length 0.822798   
     axis -90 45 -9.86923e-015   XYZ
    dof rx rz
    limits (-45.0 45.0)
           (-45.0 45.0)
  end
  begin
     id 24 
     name rclavicle
     direction -0.9585 0.265289 -0.104398   
     length 3.42039  
     axis 0 0 0   XYZ 
    dof ry rz
    limits (-10.0 20.0)
           (-20.0 0.0)
  end
  begin
     id 25 
     name rhumerus
     direction -1 -4.48977e-011 2.21478e-027  
     length 5.16954   
     axis 180 30 90   XYZ
    dof rx ry rz
    limits (-90.0 60.0)
           (-90.0 90.0)
           (-90.0 90.0)
  end
  begin
     id 26 
     name rradius
     direction -1 -4.48967e-011 5.63677e-027   
     length 3.38287   
     axis 180 30 90   XYZ
    dof rx
    limits (-10.0 170.0)
  end
  begin
     id 27 
     name rwrist
     direction -1 -4.48967e-011 4.76501e-027   
     length 1.69144   
     axis -3.27502e-015 -90 -90   XYZ
    dof ry
    limits (-180.0 0.0)
  end
  begin
     id 28
     name rhand
     direction -1 -4.48902e-011 9.53292e-027   
     length 0.817967   
     axis -6.08098e-015 -90 -90   XYZ
    dof rx rz
    limits (-90.0 90.0)
           (-45.0 45.0)
  end
  begin
     id 29
     name rfingers
     direction -1 -4.49012e-011 1.90561e-026   
     length 0.659466   
     axis -1.21619e-014 -90 -90   XYZ
    dof rx
    limits (0.0 90.0)
  end
  begin
     id 30
     name rthumb
     direction -0.707107 -6.34944e-011 0.707107   
     length 0.946865   
     axis -90 -45 9.86923e-015   XYZ
    dof rx rz
    limits (-45.0 45.0)
           (-45.0 45.0)
  end
:hierarchy
  begin
    root lhipjoint rhipjoint lowerback
    lhipjoint lfemur
    lfemur ltibia
    ltibia lfoot
    lfoot ltoes
    rhipjoint rfemur
    rfemur rtibia
    rtibia rfoot
    rfoot rtoes
    lowerback upperback
    upperback thorax
    thorax lowerneck lclavicle rclavicle
    lowerneck upperneck
    upperneck head
    lclavicle lhumerus
    lhumerus lradius
    lradius lwrist
    lwrist lhand lthumb
    lhand lfingers
    rclavicle rhumerus
    rhumerus rradius
    rradius rwrist
    rwrist rhand rthumb
    rhand rfingers
  end

#!OML:ASF F:\twosubjects\two\wednesday\Session 1\Justin1.ASF
:FULLY-SPECIFIED
:DEGREES
49
root 15.5397 17.9021 18.7755 -175.383 2.01707 -185.891
lowerback 2.02314 -4.21125 -6.42302
upperback 4.17494 -5.4535 1.50982
thorax 3.97028 -2.89237 5.04654
lowerneck -12.0402 0.164314 -11.784
upperneck 31.5732 7.06125 -2.25302
head 12.3299 2.45041 2.34453
rclavicle -2.5842e-014 -4.21423e-014
rhumerus -38.9331 -19.3073 -70.7611
rradius 24.823
rwrist -5.06308
rhand -12.1653 17.7256
rfingers 7.12502
rthumb 13.8977 -11.79
lclavicle -2.5842e-014 -4.21423e-014
lhumerus -44.9006 -42.2925 89.8266
lradius 49.7261
lwrist -1.51208
lhand 0.242477 34.4766
lfingers 7.12502
lthumb 25.8226 62.7438
rfemur -31.6343 -0.146755 15.4364
rtibia 16.3818
rfoot -6.84415 -4.38372
rtoes -5.11849
lfemur 10.1564 2.21703 -28.8731
ltibia 12.9959
lfoot -14.48 -2.34287
ltoes -15.1399
50
root 15.5475 17.8826 18.6152 -175.417 1.94 -185.918
lowerback 2.18295 -4.26005 -6.47281
upperback 4.0602 -5.53928 1.58657
thorax 3.78491 -2.9327 5.16838
lowerneck -11.8507 0.166358 -11.6737
upperneck 31.6759 7.19849 -2.58518
head 12.3537 2.50135 2.22159
rclavicle 7.95139e-015 -4.69132e-014
rhumerus -39.6225 -19.6793 -70.0036
rradius 24.363
rwrist -4.86574
rhand -11.9526 17.4081
rfingers 7.12502
rthumb 14.1027 -12.0933
lclavicle 7.95139e-015 -4.69132e-014
lhumerus -45.4331 -42.8135 90.4585
lradius 49.598
lwrist -1.04665
lhand -0.0301049 33.7042
lfingers 7.12502
lthumb 25.5615 62.0091
rfemur -31.6217 0.136877 15.341
rtibia 17.381
rfoot -6.4154 -4.49692
rtoes -4.43108
lfemur 10.8027 2.01837 -28.8579
ltibia 12.9215
lfoot -14.2796 -2.51334
ltoes -15.9071
51
root 15.5582 17.8682 18.4533 -175.48 1.80944 -185.771
lowerback 1.94864 -4.15986 -6.05263
upperback 4.31179 -5.36347 1.35357
thorax 4.08836 -2.83281 4.67044
lowerneck -11.648 0.0829183 -10.9331
upperneck 31.3956 6.85316 -2.83266
head 12.2319 2.40794 1.94636
rclavicle 1.31198e-014 -1.90833e-014
rhumerus -40.196 -21.6492 -69.261
rradius 23.7418
rwrist -3.58841
rhand -11.6536 16.9695
rfingers 7.12502
rthumb 14.3908 -12.5116
lclavicle 1.31198e-014 -1.90833e-014
lhumerus -45.0671 -43.5711 89.8562
lradius 49.6836
lwrist -1.0175
lhand 0.458104 33.5914
lfingers 7.12502
lthumb 26.0291 61.8284
rfemur -31.4603 0.290305 15.4918
rtibia 18.3764
rfoot -5.96221 -4.32078
rtoes -4.88464
lfemur 11.5049 2.06851 -28.5362
ltibia 12.8894
lfoot -13.9871 -3.02605
ltoes -16.2843
52
root 15.5761 17.8607 18.2856 -175.589 1.9128 -185.607
lowerback 1.77122 -4.13887 -5.80752
upperback 4.5232 -5.30464 1.25263
thorax 4.3679 -2.79832 4.40978
lowerneck -11.4215 0.0807761 -10.6671
upperneck 31.0504 6.69458 -2.95806
head 12.0578 2.36157 1.81801
rclavicle 1.98785e-014 3.97569e-015
rhumerus -40.7334 -23.0938 -68.3885
rradius 23.1017
rwrist -2.35333
rhand -11.2987 16.9441
rfingers 7.12502
rthumb 14.7327 -12.5123
lclavicle 1.98785e-014 3.97569e-015
lhumerus -44.8342 -43.5336 89.3575
lradius 49.7659
lwrist -1.08314
lhand 1.17914 34.0453
lfingers 7.12502
lthumb 26.7193 62.1788
rfemur -31.1616 0.619582 15.7424
rtibia 19.2704
rfoot -5.73827 -3.80554
rtoes -4.67671
lfemur 12.2439 2.13896 -28.2682
ltibia 12.9339
lfoot -13.6018 -3.13116
ltoes -16.6129
53
root 15.5946 17.8661 18.113 -175.666 2.00431 -185.573
lowerback 1.90621 -4.31509 -6.04924
upperback 4.44444 -5.56014 1.50678
thorax 4.29486 -2.93956 4.81071
lowerneck -11.3563 0.265739 -11.1478
upperneck 31.0425 7.0977 -2.94824
head 12.0212 2.50044 1.95213
rclavicle -2.24627e-014 -1.66979e-014
rhumerus -41.1818 -23.693 -67.022
rradius 22.3616
rwrist -1.36251
rhand -11.4179 17.0442
rfingers 7.12502
rthumb 14.6178 -12.4206
lclavicle -2.24627e-014 -1.66979e-014
lhumerus -45.4784 -43.0888 89.9696
lradius 49.915
lwrist -0.681904
lhand 0.903409 34.5143
lfingers 7.12502
lthumb 26.4554 62.6878
rfemur -30.8464 1.09258 15.8109
rtibia 20.0572
rfoot -5.57934 -3.30085
rtoes -4.65422
lfemur 12.8763 2.18877 -28.1305
ltibia 12.9807
lfoot -13.168 -3.34124
ltoes -17.1231
54
root 15.6093 17.8706 17.9413 -175.723 1.82126 -185.605
lowerback 2.12177 -4.45307 -6.24565
upperback 4.28527 -5.77286 1.66137
thorax 4.07345 -3.05036 5.09586
lowerneck -11.1828 0.375776 -11.2767
upperneck 31.1678 7.32142 -2.92502
head 12.0259 2.6022 2.01159
rclavicle 2.32578e-014 -2.54444e-014
rhumerus -41.9621 -24.4311 -65.6623
rradius 21.8683
rwrist -0.464006
rhand -11.2994 16.9616
rfingers 7.12502
rthumb 14.7321 -12.4949
lclavicle 2.32578e-014 -2.54444e-014
lhumerus -46.2007 -42.8341 90.4301
lradius 50.2512
lwrist -0.435188
lhand -0.115196 34.6927
lfingers 7.12502
lthumb 25.48 63.0093
rfemur -30.5207 1.35126 15.7494
rtibia 20.7113
rfoot -4.91469 -2.71337
rtoes -5.59865
lfemur 13.4632 1.8958 -28.0616
ltibia 12.9904
lfoot -12.5206 -3.64076
ltoes -20.0118
55
root 15.6267 17.8805 17.7716 -175.652 1.57635 -185.275
lowerback 2.05988 -4.4864 -5.92208
upperback 4.28493 -5.81689 1.75285
thorax 4.08757 -3.06314 5.00499
lowerneck -11.1678 0.283849 -10.9415
upperneck 31.3003 7.24368 -3.19394
head 12.1039 2.57391 1.85177
rclavicle 7.55382e-015 -3.02153e-014
rhumerus -42.6754 -24.9154 -65.0141
rradius 21.8046
rwrist -0.476886
rhand -10.9836 16.6247
rfingers 7.12502
rthumb 15.0363 -12.8093
lclavicle 7.55382e-015 -3.02153e-014
lhumerus -46.2773 -42.767 90.2411
lradius 50.5714
lwrist -0.531326
lhand 0.0939185 34.426
lfingers 7.12502
lthumb 25.6803 62.7138
rfemur -30.3564 1.63724 16.0399
rtibia 21.194
rfoot -3.68282 -2.22733
rtoes -5.65397
lfemur 13.8941 1.18311 -27.7121
ltibia 13.0645
lfoot -11.5528 -3.58121
ltoes -22.6114
56
root 15.646 17.8917 17.5997 -175.555 1.26883 -184.716
lowerback 1.96107 -4.56721 -5.41208
upperback 4.38422 -5.91598 1.99728
thorax 4.23126 -3.10152 4.96032
lowerneck -11.5846 0.185725 -10.7897
upperneck 31.573 7.29339 -3.49155
head 12.3256 2.55522 1.74127
rclavicle -4.17448e-014 1.66979e-014
rhumerus -43.0212 -25.876 -64.0646
rradius 21.4083
rwrist -0.106029
rhand -10.8659 16.4923
rfingers 7.12502
rthumb 15.1497 -12.9331
lclavicle -4.17448e-014 1.66979e-014
lhumerus -45.9179 -42.7393 90.0884
lradius 50.5058
lwrist -0.534837
lhand 0.973577 34.1661
lfingers 7.12502
lthumb 26.5226 62.3295
rfemur -30.2121 2.10481 16.4699
rtibia 21.5368
rfoot -2.62617 -2.38165
rtoes -3.13154
lfemur 14.2765 0.681907 -27.011
ltibia 13.1999
lfoot -10.598 -3.82182
ltoes -24.4239
57
root 15.6619 17.9015 17.4258 -175.576 0.933262 -184.321
lowerback 2.0619 -4.59846 -4.95829
upperback 4.47833 -5.95153 2.10687
thorax 4.23888 -3.10128 4.82603
lowerneck -12.0727 0.150204 -10.4579
upperneck 31.8417 7.34072 -3.68133
head 12.5558 2.56181 1.64048
rclavicle 2.80286e-014 -5.56597e-015
rhumerus -43.6549 -27.9469 -62.4163
rradius 20.6858
rwrist 1.43456
rhand -10.5931 16.6258
rfingers 7.12502
rthumb 15.4124 -12.7796
lclavicle 2.80286e-014 -5.56597e-015
lhumerus -45.6772 -43.118 90.0078
lradius 50.354
lwrist -0.158753
lhand 0.725982 34.615
lfingers 7.12502
lthumb 26.2856 62.814
rfemur -29.9049 2.34556 16.8015
rtibia 21.8009
rfoot -1.61175 -2.71391
rtoes -0.431461
lfemur 14.6438 0.58921 -26.3519
ltibia 13.5402
lfoot -9.94058 -4.48278
ltoes -26.624
58
root 15.6736 17.9245 17.2477 -175.611 0.844164 -184.008
lowerback 2.15371 -4.70117 -4.69049
upperback 4.49309 -6.09023 2.30445
thorax 4.21259 -3.1616 4.88505
lowerneck -12.3519 0.310498 -10.3088
upperneck 31.9314 7.71662 -3.98546
head 12.6651 2.69938 1.56241
rclavicle -1.11319e-014 -1.59028e-014
rhumerus -44.1696 -29.0693 -61.0566
rradius 20.2628
rwrist 2.64039
rhand -10.2817 16.4161
rfingers 7.12502
rthumb 15.7123 -12.9661
lclavicle -1.11319e-014 -1.59028e-014
lhumerus -45.6324 -42.3842 89.8453
lradius 50.4391
lwrist -0.415486
lhand 0.0318546 34.746
lfingers 7.12502
lthumb 25.6209 63.0423
rfemur -29.5967 2.21116 17.2706
rtibia 22.0507
rfoot -0.0843245 -2.4893
rtoes 0.883873
lfemur 14.7361 0.340596 -25.9554
ltibia 14.3425
lfoot -9.24527 -4.84721
ltoes -28.0667
